<svg width="27" height="52" viewBox="0 0 27 52" fill="none" xmlns="http://www.w3.org/2000/svg">
<path fill-rule="evenodd" clip-rule="evenodd" d="M18.0175 0.0638792C13.6311 0.610414 10.3821 3.03132 8.90621 6.85318C8.13938 8.83867 8.07275 9.4135 8.02016 14.5007L7.97308 19.0632H3.98654H0V23.6528V28.2423H3.99561H7.99122V40.1212V52H12.7423H17.4933L17.5209 40.1482L17.5483 28.2963L21.5416 28.2423L25.5349 28.1883L26.0982 23.8687C26.4081 21.493 26.6642 19.4403 26.6675 19.3074L26.6734 19.0656L22.1108 19.0374L17.5483 19.0092V15.4456C17.5483 12.3448 17.5736 11.7908 17.7428 11.18C17.9955 10.2683 18.499 9.58574 19.2004 9.20421C20.15 8.6877 20.9135 8.59224 24.1086 8.59008L26.9974 8.58824V4.44857V0.308907L25.5125 0.182128C23.4799 0.0084806 19.0255 -0.0617126 18.0175 0.0638792Z" fill="#1B372D"/>
</svg>
