<svg width="48" height="48" viewBox="0 0 48 48" fill="none" xmlns="http://www.w3.org/2000/svg">
<path fill-rule="evenodd" clip-rule="evenodd" d="M14.5494 0.060096C9.64414 0.319838 6.59429 1.42906 4.13203 3.84881C1.71615 6.22285 0.566619 8.8938 0.139867 13.1239C-0.0466884 14.9735 -0.0465891 33.0371 0.139966 34.885C0.488738 38.3384 1.35744 40.826 2.91733 42.8374C5.19622 45.7761 8.06796 47.2706 12.4953 47.8218C13.7738 47.981 14.9354 47.9988 24.0491 47.9999C33.3109 48.0011 34.301 47.9855 35.5722 47.8189C39.2229 47.3403 41.6938 46.2943 43.7062 44.3757C46.1494 42.0464 47.3776 39.3577 47.86 35.2824C48.0487 33.6887 48.0458 14.5251 47.8566 12.8258C47.4376 9.06054 46.3551 6.43122 44.3285 4.25631C42.2094 1.98223 39.4902 0.708556 35.6715 0.201692C34.5428 0.0518487 33.229 0.0269079 25.2412 0.00405381C20.2147 -0.0103542 15.4034 0.0148847 14.5494 0.060096ZM34.0445 4.41837C37.4346 4.65427 39.4763 5.46569 41.1453 7.24046C41.9655 8.11259 42.3962 8.81312 42.8419 9.99994C43.6075 12.0388 43.7634 14.4172 43.7633 24.0541C43.7633 32.4371 43.6464 35.1375 43.206 36.922C42.4374 40.0363 40.3287 42.2518 37.3105 43.116C35.262 43.7026 32.875 43.8054 22.6087 43.7493C15.6871 43.7114 13.8948 43.6741 12.9234 43.5476C10.137 43.1846 8.51358 42.4683 6.98717 40.9281C6.17926 40.1129 5.91234 39.7291 5.41834 38.6721C4.35047 36.3875 4.18299 34.0128 4.26136 22.2655C4.29206 17.6557 4.35762 14.1602 4.42616 13.4717C4.73152 10.4035 5.56228 8.42509 7.18674 6.89834C8.64322 5.52948 10.5703 4.74131 13.1125 4.47481C15.3197 4.24349 30.9258 4.20146 34.0445 4.41837ZM35.8479 8.46901C35.617 8.55079 35.2095 8.81421 34.9424 9.05447C33.4643 10.3838 33.7867 12.807 35.5627 13.7155C36.0497 13.9647 36.2575 14.0122 36.8512 14.0097C38.0503 14.0048 38.8678 13.5054 39.3909 12.4581C39.7897 11.66 39.8157 10.7052 39.4597 9.94042C39.1749 9.32852 38.4538 8.67251 37.8337 8.46116C37.2674 8.2681 36.4054 8.27157 35.8479 8.46901ZM22.261 11.7951C18.3798 12.2801 14.7235 14.9331 12.8981 18.589C11.8009 20.7865 11.4089 23.5735 11.8421 26.0958C12.9272 32.4153 18.5846 36.8116 24.997 36.3184C30.5531 35.891 35.1283 31.7545 36.1788 26.2086C36.514 24.4383 36.328 21.988 35.7157 20.1128C34.542 16.5178 31.5662 13.5317 27.9729 12.3427C26.1305 11.7331 24.2222 11.55 22.261 11.7951ZM25.8868 16.2223C27.2091 16.5384 28.6401 17.3423 29.6489 18.336C31.4101 20.0704 32.3038 22.6935 31.9526 25.0966C31.476 28.3564 29.2521 30.8601 25.9862 31.8131C25.0145 32.0967 22.9363 32.0756 21.8694 31.7713C17.4144 30.5009 14.9233 25.7642 16.4103 21.3911C17.3561 18.6096 19.9249 16.5176 22.9564 16.0603C23.7064 15.9472 25.0454 16.0212 25.8868 16.2223Z" fill="#1B372D"/>
</svg>
