<svg width="52" height="52" viewBox="0 0 52 52" fill="none" xmlns="http://www.w3.org/2000/svg">
<path fill-rule="evenodd" clip-rule="evenodd" d="M34.5782 0.0742166C33.9488 0.181377 32.629 0.624829 31.9384 0.961249C28.5528 2.61051 26.0158 6.55341 25.4225 11.0881C25.2929 12.0785 25.3332 14.9449 25.488 15.7484L25.5602 16.1232L24.5248 16.039C19.2854 15.6124 13.5027 12.9293 9.01204 8.84112C7.19946 7.19108 5.30634 5.03037 3.95875 3.07367L3.47106 2.36553L3.10189 3.33126C2.42444 5.10365 2.18143 6.38648 2.12348 8.49658C2.06385 10.6659 2.20873 11.8241 2.77007 13.666C3.43162 15.837 4.81101 18.1344 6.20975 19.3948L6.74974 19.8816L6.42754 19.9203C5.8796 19.9864 3.97015 19.4395 3.09059 18.9646C2.63031 18.7161 2.18729 18.4777 2.10601 18.4348C1.98225 18.3695 1.96886 18.5535 2.02316 19.57C2.10098 21.0246 2.47235 22.701 3.04593 24.187C4.3138 27.4715 6.785 30.0535 9.62787 31.0641C10.216 31.2731 10.4385 31.4002 10.3025 31.4496C9.53791 31.7265 8.6391 31.8222 7.27614 31.7717C5.51964 31.7066 5.62299 31.5663 6.23464 33.1863C6.97779 35.1547 8.43679 37.2474 9.92957 38.4862C11.3688 39.6805 13.2086 40.4845 14.8618 40.6414C15.3171 40.6846 15.6646 40.7698 15.6341 40.8306C15.4849 41.1278 13.1773 42.8666 11.8815 43.6583C8.66818 45.6214 5.65448 46.4303 1.93853 46.3273L0 46.2736L0.551503 46.7034C1.32645 47.3072 3.54136 48.682 4.65974 49.2532C6.72171 50.3065 9.50119 51.2561 11.8255 51.7016C13.2797 51.9802 17.943 52.1003 19.5962 51.9015C25.1072 51.239 30.3077 48.787 34.4677 44.8896C35.9632 43.4885 37.4486 41.8355 38.4681 40.4375C42.6559 34.6955 45.2561 28.0851 46.2941 20.541C46.5639 18.5799 46.795 14.6118 46.7022 13.5346L46.6498 12.9265L47.2862 12.3652C48.5689 11.2338 50.5547 8.72108 51.5533 6.96569L52 6.18041L51.3441 6.50897C50.3545 7.00459 48.8331 7.55739 47.7138 7.82812C46.5472 8.11032 45.9283 8.22714 45.9283 8.16506C45.9283 8.14084 46.1304 7.97521 46.3773 7.79708C47.5835 6.92679 49.2698 4.52818 49.9986 2.64631C50.6933 0.852415 50.7496 0.895948 49.0468 1.90972C47.5618 2.79366 46.0528 3.47011 44.5952 3.90506L43.8375 4.1311L43.2426 3.46174C41.2171 1.18265 38.6003 -0.050331 35.8982 0.0015746C35.3449 0.012136 34.7508 0.0448507 34.5782 0.0742166Z" fill="#1B372D"/>
</svg>
