<svg width="52" height="52" viewBox="0 0 52 52" fill="none" xmlns="http://www.w3.org/2000/svg">
<path fill-rule="evenodd" clip-rule="evenodd" d="M2.77091 0.14522C2.44192 0.233487 2.01434 0.402895 1.82081 0.521754C1.20181 0.901686 0.488406 1.75892 0.23791 2.42383L0 3.05551L0.0285934 26.212L0.0571867 49.3684L0.384741 50.0105C0.753474 50.7333 1.4703 51.4238 2.20997 51.7684L2.70677 52H26.0562H49.4056L49.989 51.6947C50.7447 51.2992 51.3351 50.7055 51.7044 49.9695L52 49.3802L51.9999 26.074L51.9998 2.76779L51.6859 2.1099C51.3156 1.3337 50.671 0.718682 49.8053 0.315505L49.1848 0.0265805L26.277 0.00574736C6.47337 -0.0123446 3.28813 0.00662447 2.77091 0.14522ZM13.8516 9.11085C16.001 10.0882 16.8963 12.595 15.8383 14.6748C15.4824 15.3744 14.4946 16.2405 13.7188 16.5332C12.8372 16.8656 11.4252 16.9399 10.4899 16.7028C7.95382 16.0602 6.71779 13.3877 7.85015 10.9953C8.30257 10.0391 9.31548 9.24057 10.4926 8.91195C11.4185 8.65351 13.0594 8.75066 13.8516 9.11085ZM37.6481 19.8204C40.6661 20.6558 42.729 22.7516 43.6146 25.8823C44.1169 27.6579 44.1575 28.4279 44.1597 36.238L44.1617 43.6119H40.2498H36.3378L36.2963 36.567C36.2555 29.6588 36.25 29.5064 36.0089 28.7137C35.8738 28.2692 35.6876 27.7605 35.5953 27.5833C35.312 27.0388 34.6537 26.3945 34.0671 26.087C33.564 25.8233 33.3923 25.794 32.3489 25.794C31.2898 25.794 31.1328 25.8218 30.5288 26.1164C29.6489 26.5454 28.8856 27.3236 28.4511 28.2347L28.0986 28.9738L28.068 36.2928L28.0373 43.6119H24.0721H20.1069L20.1492 31.8521L20.1913 20.0923H24.0898H27.9882L28.0434 21.6677L28.0986 23.2431L28.446 22.7642C29.6539 21.0992 31.3917 20.0167 33.4529 19.6453C34.5894 19.4406 36.5754 19.5235 37.6481 19.8204ZM15.7891 31.8247V43.6119H11.8147H7.84033V31.8978C7.84033 25.455 7.87345 20.1507 7.91396 20.1106C7.95437 20.0703 9.74284 20.0374 11.8883 20.0374H15.7891V31.8247Z" fill="#1B372D"/>
</svg>
